<svg version="1.1" id="Layer_1" xmlns="http://www.w3.org/2000/svg" xmlns:xlink="http://www.w3.org/1999/xlink" x="0px" y="0px"
	 width="100%" viewBox="0 0 800 800" enable-background="new 0 0 800 800" xml:space="preserve">
<path fill="#000000" opacity="1.000000" stroke="none" 
	d="
M1.000000,285.000000 
	C1.000000,190.000000 1.000000,95.500000 1.000000,1.000000 
	C267.666656,1.000000 534.333313,1.000000 801.000000,1.000000 
	C801.000000,267.666656 801.000000,534.333313 801.000000,801.000000 
	C534.333313,801.000000 267.666656,801.000000 1.000000,801.000000 
	C1.000000,629.166687 1.000000,457.333344 1.000000,285.000000 
M187.000000,465.500000 
	C187.000000,545.308044 187.026199,625.116089 186.963867,704.924133 
	C186.956787,713.987061 184.143692,721.904236 177.239456,728.402405 
	C167.501663,737.567444 152.154800,734.476135 145.044418,725.148438 
	C139.379395,717.716797 138.092804,708.807678 138.079468,699.903564 
	C137.947952,612.097961 138.000000,524.292053 138.000000,436.486267 
	C138.000000,434.723297 138.000000,432.960327 138.000000,431.292908 
	C123.342003,431.292908 109.272202,431.292908 95.000000,431.292908 
	C95.000000,433.396851 95.000000,435.209381 95.000000,437.021912 
	C95.000000,525.494202 94.980141,613.966431 95.021240,702.438721 
	C95.027458,715.824524 97.162086,728.788696 102.946800,741.060547 
	C113.959877,764.424011 129.640015,781.591187 157.020660,785.230957 
	C166.972656,786.553955 176.123215,785.080200 184.955719,781.394958 
	C195.064651,777.177185 203.431366,770.239624 210.569946,761.925232 
	C218.235062,752.997620 223.675613,742.676880 226.809647,731.497375 
	C229.810120,720.794373 230.235413,709.687378 230.190765,698.416687 
	C229.844879,611.112061 230.000000,523.805481 230.000000,436.499542 
	C230.000000,434.735291 230.000000,432.971069 230.000000,431.288208 
	C215.351501,431.288208 201.281830,431.288208 187.000000,431.288208 
	C187.000000,442.550171 187.000000,453.525085 187.000000,465.500000 
M95.000000,230.500000 
	C95.000000,250.165848 95.083153,269.832184 94.969398,289.497375 
	C94.899086,301.652313 96.862305,313.434875 101.046478,324.803192 
	C106.618225,339.941498 115.801117,352.503845 128.736023,362.222534 
	C144.658478,374.185974 162.530640,376.738159 181.016510,370.770874 
	C198.648346,365.079315 211.145569,352.277771 219.828995,336.274445 
	C228.122223,320.990234 230.292297,304.346008 230.203491,286.861450 
	C229.759003,199.366333 230.000000,111.867744 230.000000,24.370378 
	C230.000000,22.618166 230.000000,20.865952 230.000000,19.338699 
	C215.255020,19.338699 201.181137,19.338699 187.000000,19.338699 
	C187.000000,21.501698 187.000000,23.327328 187.000000,25.152960 
	C187.000000,114.316940 186.977448,203.480927 187.041367,292.644867 
	C187.046661,300.046753 184.894882,306.650482 180.750626,312.594757 
	C172.046555,325.079346 154.036057,324.400482 145.400360,313.133392 
	C139.535187,305.481079 138.152893,296.806763 138.131226,288.008911 
	C137.915024,200.178772 138.000000,112.347870 138.000000,24.517185 
	C138.000000,22.750891 138.000000,20.984594 138.000000,19.286797 
	C123.360085,19.286797 109.287651,19.286797 95.000000,19.286797 
	C95.000000,89.548904 95.000000,159.524460 95.000000,230.500000 
M332.041718,771.564209 
	C339.618896,777.802795 348.271667,781.783508 357.808472,783.980896 
	C367.318451,786.171997 377.018311,786.941162 386.441895,784.673157 
	C402.932007,780.704468 415.484375,770.648071 424.972443,756.818909 
	C432.680359,745.584290 438.467743,733.200867 439.730896,719.661926 
	C440.917572,706.942688 439.985138,694.025757 439.985138,681.302551 
	C426.323669,681.302551 412.253052,681.302551 398.000000,681.302551 
	C398.000000,687.584778 398.391083,693.598450 397.891266,699.537231 
	C397.379547,705.617859 396.597168,711.802856 394.875977,717.629822 
	C390.322083,733.046509 372.717529,737.969849 360.722290,730.761597 
	C351.365601,725.139038 349.211548,714.896301 349.159607,705.065369 
	C348.840973,644.748962 348.921936,584.429688 349.089050,524.112061 
	C349.112549,515.629211 349.764496,507.054504 351.157562,498.694305 
	C352.662079,489.665375 356.815765,482.040070 367.135620,480.365784 
	C375.024506,479.085846 382.909637,479.531128 388.344147,486.057312 
	C394.910461,493.942688 398.059448,503.422363 398.005920,513.825195 
	C397.973633,520.105957 398.000000,526.387085 398.000000,532.773926 
	C412.521118,532.773926 426.590485,532.773926 441.919373,532.773926 
	C440.933014,518.714417 440.390717,504.908661 438.892853,491.207336 
	C437.112518,474.922089 430.137604,460.531799 419.547058,448.254700 
	C410.359863,437.604340 398.867706,430.797150 384.306427,428.788910 
	C365.115326,426.142151 347.939117,429.740234 333.244049,442.370300 
	C314.898407,458.138000 306.370728,479.079498 306.190277,502.669342 
	C305.657562,572.314392 305.873627,641.966736 306.172943,711.614563 
	C306.207184,719.591309 308.034119,727.710632 310.060699,735.495483 
	C313.670074,749.360413 320.779053,761.369080 332.041718,771.564209 
M441.000000,105.497513 
	C440.276093,95.518135 440.460480,85.366882 438.612427,75.600220 
	C435.932983,61.439934 429.929138,48.379635 420.591888,37.208805 
	C413.908386,29.212856 405.869293,22.293686 395.915863,19.233202 
	C382.254150,15.032502 368.325470,14.278383 354.141846,18.785767 
	C341.327576,22.857983 331.144073,30.251856 323.271240,40.568470 
	C310.991730,56.659691 305.937622,75.307678 305.971924,95.492561 
	C306.057220,145.644867 305.905060,195.797668 306.045654,245.949738 
	C306.103821,266.695251 306.226257,287.458740 307.140106,308.177887 
	C307.863739,324.584778 314.394165,338.952271 324.891022,351.708832 
	C341.131378,371.445221 362.888611,376.426514 386.251251,372.438751 
	C404.585663,369.309235 418.060974,356.741455 427.555481,340.767792 
	C433.285919,331.126740 438.289398,320.983246 439.158325,309.489807 
	C440.171082,296.092834 440.927521,282.676422 441.793396,269.296448 
	C426.335449,269.296448 412.265259,269.296448 398.000000,269.296448 
	C398.000000,275.570587 398.391052,281.582520 397.891327,287.519440 
	C397.379578,293.599518 396.691223,299.826843 394.859161,305.602417 
	C389.912354,321.197357 372.903809,326.033691 360.750549,318.732391 
	C351.518127,313.185791 349.192505,302.942200 349.147461,293.070953 
	C348.858582,229.756882 348.860840,166.440155 349.178650,103.126366 
	C349.217712,95.336525 351.105103,87.395241 353.198486,79.817680 
	C355.734650,70.637627 364.002777,67.910980 372.134033,67.292625 
	C378.328522,66.821564 384.703827,69.144028 388.817871,74.536407 
	C395.416779,83.185738 398.295654,93.112587 398.024445,104.000656 
	C397.885101,109.594521 398.000000,115.194710 398.000000,120.712555 
	C412.646332,120.712555 426.716278,120.712555 441.000000,120.712555 
	C441.000000,115.783188 441.000000,111.139496 441.000000,105.497513 
M526.951904,564.402649 
	C523.641174,573.063843 524.747070,581.504089 527.968811,589.947998 
	C534.384155,606.761902 545.536316,620.427612 557.262146,633.601013 
	C565.445801,642.794983 574.157043,651.560547 583.088257,660.037415 
	C593.721924,670.130005 604.843018,679.709106 616.010925,689.742493 
	C628.513000,678.515991 640.811218,668.074646 652.414795,656.911133 
	C669.650452,640.329041 686.153381,622.965942 698.222961,602.103149 
	C704.207275,591.759033 708.750977,580.991394 706.181946,568.097168 
	C702.527039,549.753052 692.552368,536.954895 675.749573,529.396484 
	C667.641479,525.749268 658.827576,523.566467 650.071899,525.201782 
	C636.524597,527.732056 624.262573,533.278076 616.221863,545.045227 
	C602.755981,529.461304 586.344360,521.806274 566.291016,526.214111 
	C546.142151,530.642822 532.429504,543.037415 526.951904,564.402649 
M637.000000,104.500000 
	C637.000000,75.405701 637.000000,46.311401 637.000000,17.289497 
	C622.686829,17.289497 608.948181,17.289497 595.286316,17.289497 
	C595.286316,102.312843 595.286316,187.046402 595.286316,271.710510 
	C609.313232,271.710510 623.051880,271.710510 637.000000,271.710510 
	C637.000000,216.114182 637.000000,160.807083 637.000000,104.500000 
M637.000000,371.348328 
	C637.000000,355.266357 637.000000,339.184357 637.000000,323.343567 
	C622.576843,323.343567 608.836792,323.343567 595.346069,323.343567 
	C595.346069,340.761078 595.346069,357.833740 595.346069,374.999908 
	C608.351135,374.999908 621.010498,374.981720 633.669678,375.019135 
	C635.614746,375.024872 637.489014,375.199585 637.000000,371.348328 
z"/>
<path fill="#FFFFFF" opacity="1.000000" stroke="none" 
	d="
M187.000000,465.000000 
	C187.000000,453.525085 187.000000,442.550171 187.000000,431.288208 
	C201.281830,431.288208 215.351501,431.288208 230.000000,431.288208 
	C230.000000,432.971069 230.000000,434.735291 230.000000,436.499542 
	C230.000000,523.805481 229.844879,611.112061 230.190765,698.416687 
	C230.235413,709.687378 229.810120,720.794373 226.809647,731.497375 
	C223.675613,742.676880 218.235062,752.997620 210.569946,761.925232 
	C203.431366,770.239624 195.064651,777.177185 184.955719,781.394958 
	C176.123215,785.080200 166.972656,786.553955 157.020660,785.230957 
	C129.640015,781.591187 113.959877,764.424011 102.946800,741.060547 
	C97.162086,728.788696 95.027458,715.824524 95.021240,702.438721 
	C94.980141,613.966431 95.000000,525.494202 95.000000,437.021912 
	C95.000000,435.209381 95.000000,433.396851 95.000000,431.292908 
	C109.272202,431.292908 123.342003,431.292908 138.000000,431.292908 
	C138.000000,432.960327 138.000000,434.723297 138.000000,436.486267 
	C138.000000,524.292053 137.947952,612.097961 138.079468,699.903564 
	C138.092804,708.807678 139.379395,717.716797 145.044418,725.148438 
	C152.154800,734.476135 167.501663,737.567444 177.239456,728.402405 
	C184.143692,721.904236 186.956787,713.987061 186.963867,704.924133 
	C187.026199,625.116089 187.000000,545.308044 187.000000,465.000000 
z"/>
<path fill="#FFFFFF" opacity="1.000000" stroke="none" 
	d="
M95.000000,230.000000 
	C95.000000,159.524460 95.000000,89.548904 95.000000,19.286797 
	C109.287651,19.286797 123.360085,19.286797 138.000000,19.286797 
	C138.000000,20.984594 138.000000,22.750891 138.000000,24.517185 
	C138.000000,112.347870 137.915024,200.178772 138.131226,288.008911 
	C138.152893,296.806763 139.535187,305.481079 145.400360,313.133392 
	C154.036057,324.400482 172.046555,325.079346 180.750626,312.594757 
	C184.894882,306.650482 187.046661,300.046753 187.041367,292.644867 
	C186.977448,203.480927 187.000000,114.316940 187.000000,25.152960 
	C187.000000,23.327328 187.000000,21.501698 187.000000,19.338699 
	C201.181137,19.338699 215.255020,19.338699 230.000000,19.338699 
	C230.000000,20.865952 230.000000,22.618166 230.000000,24.370378 
	C230.000000,111.867744 229.759003,199.366333 230.203491,286.861450 
	C230.292297,304.346008 228.122223,320.990234 219.828995,336.274445 
	C211.145569,352.277771 198.648346,365.079315 181.016510,370.770874 
	C162.530640,376.738159 144.658478,374.185974 128.736023,362.222534 
	C115.801117,352.503845 106.618225,339.941498 101.046478,324.803192 
	C96.862305,313.434875 94.899086,301.652313 94.969398,289.497375 
	C95.083153,269.832184 95.000000,250.165848 95.000000,230.000000 
z"/>
<path fill="#FFFFFF" opacity="1.000000" stroke="none" 
	d="
M331.796326,771.298218 
	C320.779053,761.369080 313.670074,749.360413 310.060699,735.495483 
	C308.034119,727.710632 306.207184,719.591309 306.172943,711.614563 
	C305.873627,641.966736 305.657562,572.314392 306.190277,502.669342 
	C306.370728,479.079498 314.898407,458.138000 333.244049,442.370300 
	C347.939117,429.740234 365.115326,426.142151 384.306427,428.788910 
	C398.867706,430.797150 410.359863,437.604340 419.547058,448.254700 
	C430.137604,460.531799 437.112518,474.922089 438.892853,491.207336 
	C440.390717,504.908661 440.933014,518.714417 441.919373,532.773926 
	C426.590485,532.773926 412.521118,532.773926 398.000000,532.773926 
	C398.000000,526.387085 397.973633,520.105957 398.005920,513.825195 
	C398.059448,503.422363 394.910461,493.942688 388.344147,486.057312 
	C382.909637,479.531128 375.024506,479.085846 367.135620,480.365784 
	C356.815765,482.040070 352.662079,489.665375 351.157562,498.694305 
	C349.764496,507.054504 349.112549,515.629211 349.089050,524.112061 
	C348.921936,584.429688 348.840973,644.748962 349.159607,705.065369 
	C349.211548,714.896301 351.365601,725.139038 360.722290,730.761597 
	C372.717529,737.969849 390.322083,733.046509 394.875977,717.629822 
	C396.597168,711.802856 397.379547,705.617859 397.891266,699.537231 
	C398.391083,693.598450 398.000000,687.584778 398.000000,681.302551 
	C412.253052,681.302551 426.323669,681.302551 439.985138,681.302551 
	C439.985138,694.025757 440.917572,706.942688 439.730896,719.661926 
	C438.467743,733.200867 432.680359,745.584290 424.972443,756.818909 
	C415.484375,770.648071 402.932007,780.704468 386.441895,784.673157 
	C377.018311,786.941162 367.318451,786.171997 357.808472,783.980896 
	C348.271667,781.783508 339.618896,777.802795 331.796326,771.298218 
z"/>
<path fill="#FFFFFF" opacity="1.000000" stroke="none" 
	d="
M441.000000,105.996658 
	C441.000000,111.139496 441.000000,115.783188 441.000000,120.712555 
	C426.716278,120.712555 412.646332,120.712555 398.000000,120.712555 
	C398.000000,115.194710 397.885101,109.594521 398.024445,104.000656 
	C398.295654,93.112587 395.416779,83.185738 388.817871,74.536407 
	C384.703827,69.144028 378.328522,66.821564 372.134033,67.292625 
	C364.002777,67.910980 355.734650,70.637627 353.198486,79.817680 
	C351.105103,87.395241 349.217712,95.336525 349.178650,103.126366 
	C348.860840,166.440155 348.858582,229.756882 349.147461,293.070953 
	C349.192505,302.942200 351.518127,313.185791 360.750549,318.732391 
	C372.903809,326.033691 389.912354,321.197357 394.859161,305.602417 
	C396.691223,299.826843 397.379578,293.599518 397.891327,287.519440 
	C398.391052,281.582520 398.000000,275.570587 398.000000,269.296448 
	C412.265259,269.296448 426.335449,269.296448 441.793396,269.296448 
	C440.927521,282.676422 440.171082,296.092834 439.158325,309.489807 
	C438.289398,320.983246 433.285919,331.126740 427.555481,340.767792 
	C418.060974,356.741455 404.585663,369.309235 386.251251,372.438751 
	C362.888611,376.426514 341.131378,371.445221 324.891022,351.708832 
	C314.394165,338.952271 307.863739,324.584778 307.140106,308.177887 
	C306.226257,287.458740 306.103821,266.695251 306.045654,245.949738 
	C305.905060,195.797668 306.057220,145.644867 305.971924,95.492561 
	C305.937622,75.307678 310.991730,56.659691 323.271240,40.568470 
	C331.144073,30.251856 341.327576,22.857983 354.141846,18.785767 
	C368.325470,14.278383 382.254150,15.032502 395.915863,19.233202 
	C405.869293,22.293686 413.908386,29.212856 420.591888,37.208805 
	C429.929138,48.379635 435.932983,61.439934 438.612427,75.600220 
	C440.460480,85.366882 440.276093,95.518135 441.000000,105.996658 
z"/>
<path fill="#FFFFFF" opacity="1.000000" stroke="none" 
	d="
M526.974121,563.975952 
	C532.429504,543.037415 546.142151,530.642822 566.291016,526.214111 
	C586.344360,521.806274 602.755981,529.461304 616.221863,545.045227 
	C624.262573,533.278076 636.524597,527.732056 650.071899,525.201782 
	C658.827576,523.566467 667.641479,525.749268 675.749573,529.396484 
	C692.552368,536.954895 702.527039,549.753052 706.181946,568.097168 
	C708.750977,580.991394 704.207275,591.759033 698.222961,602.103149 
	C686.153381,622.965942 669.650452,640.329041 652.414795,656.911133 
	C640.811218,668.074646 628.513000,678.515991 616.010925,689.742493 
	C604.843018,679.709106 593.721924,670.130005 583.088257,660.037415 
	C574.157043,651.560547 565.445801,642.794983 557.262146,633.601013 
	C545.536316,620.427612 534.384155,606.761902 527.968811,589.947998 
	C524.747070,581.504089 523.641174,573.063843 526.974121,563.975952 
z"/>
<path fill="#FFFFFF" opacity="1.000000" stroke="none" 
	d="
M637.000000,105.000000 
	C637.000000,160.807083 637.000000,216.114182 637.000000,271.710510 
	C623.051880,271.710510 609.313232,271.710510 595.286316,271.710510 
	C595.286316,187.046402 595.286316,102.312843 595.286316,17.289497 
	C608.948181,17.289497 622.686829,17.289497 637.000000,17.289497 
	C637.000000,46.311401 637.000000,75.405701 637.000000,105.000000 
z"/>
<path fill="#FFFFFF" opacity="1.000000" stroke="none" 
	d="
M636.999878,371.833862 
	C637.489014,375.199585 635.614746,375.024872 633.669678,375.019135 
	C621.010498,374.981720 608.351135,374.999908 595.346069,374.999908 
	C595.346069,357.833740 595.346069,340.761078 595.346069,323.343567 
	C608.836792,323.343567 622.576843,323.343567 637.000000,323.343567 
	C637.000000,339.184357 637.000000,355.266357 636.999878,371.833862 
z"/>
</svg>