<?xml version="1.0" encoding="UTF-8" standalone="no"?>
<!-- Created with Inkscape (http://www.inkscape.org/) -->

<svg
   width="279.207"
   height="251.25049"
   viewBox="0 0 73.873517 66.476692"
   version="1.1"
   id="svg1"
   xml:space="preserve"
   xmlns="http://www.w3.org/2000/svg"
   xmlns:svg="http://www.w3.org/2000/svg"><defs
   id="defs1" />
     <path
   d="m 53.127381,4.9e-4 c 0.79036,0 1.12293,0.0132 1.12293,0.045 0,0.0312 0.0875,0.0364 0.28577,0.0165 0.24684,-0.0248 0.28577,-0.0198 0.28577,0.0367 0,0.0462 -0.0378,0.0651 -0.12919,0.0651 -0.17044,0 -0.13752,0.0233 0.0811,0.0568 0.11636,0.0179 0.16793,0.0125 0.1509,-0.015 -0.015,-0.0243 0.0176,-0.0419 0.0785,-0.0419 0.0575,0 0.10439,-0.0196 0.10439,-0.0439 0,-0.0527 0.31922,-0.0259 1.06195,0.0884 0.76021,0.11706 0.77566,0.11996 0.77566,0.15555 0,0.0181 0.15546,0.0441 0.3452,0.0574 0.18973,0.0134 0.39974,0.0525 0.46716,0.0873 0.0674,0.0349 0.17432,0.0641 0.23719,0.0646 0.16406,0.001 1.01006,0.23603 1.0263,0.28474 0.008,0.0225 0.0696,0.0408 0.13797,0.0408 0.12386,0 0.76885,0.19814 0.80771,0.24805 0.0113,0.0144 0.0891,0.039 0.17259,0.0543 0.0835,0.0154 0.17856,0.0545 0.21136,0.0873 0.0328,0.0328 0.0966,0.06 0.14159,0.06 0.10129,0 0.65944,0.22136 0.69454,0.27543 0.0141,0.0217 0.0945,0.0521 0.1788,0.0677 0.0842,0.0155 0.15296,0.043 0.15296,0.0615 0,0.0185 0.0829,0.057 0.18397,0.0853 0.10106,0.0283 0.18345,0.0672 0.18345,0.0868 0,0.0196 0.0282,0.0357 0.0625,0.0357 0.0674,0 0.5571,0.23651 0.59066,0.28526 0.0112,0.0163 0.0894,0.0521 0.17363,0.0796 0.0842,0.0275 0.15296,0.0629 0.15296,0.0791 0,0.0162 0.0645,0.0527 0.14315,0.0811 0.0786,0.0284 0.14314,0.0673 0.14314,0.0858 0,0.0186 0.0474,0.0454 0.10542,0.0599 0.0894,0.0224 0.40099,0.20134 0.46612,0.26769 0.0113,0.0114 0.10947,0.0668 0.21859,0.12299 0.10912,0.0561 0.20792,0.12541 0.21911,0.15348 0.0112,0.0281 0.0418,0.0506 0.0682,0.0506 0.0539,0 0.47512,0.26386 0.5116,0.32039 0.013,0.02 0.0605,0.0478 0.10594,0.062 0.0454,0.0141 0.14315,0.0808 0.21704,0.14832 0.0739,0.0675 0.14473,0.12299 0.15761,0.12299 0.0326,0 0.73914,0.52804 0.75499,0.5643 0.007,0.0163 0.071,0.0657 0.14211,0.11007 0.0711,0.0444 0.24586,0.18428 0.38809,0.31109 0.14223,0.1268 0.3964,0.35075 0.56483,0.49713 0.16844,0.1464 0.56357,0.5311 0.87798,0.85525 0.73108,0.75372 0.83716,0.87092 0.83716,0.92501 0,0.0244 0.0156,0.0444 0.0346,0.0444 0.0925,0 1.4764,1.7932696 1.4764,1.9130596 0,0.0222 0.0142,0.0462 0.032,0.0537 0.0672,0.0283 0.55133,0.77719 0.59841,0.9255304 0.0155,0.0487 0.0432,0.0884 0.0615,0.0884 0.0182,0 0.0573,0.0598 0.0868,0.13281 0.0295,0.073 0.0649,0.14173 0.0786,0.15296 0.0581,0.0477 0.20412,0.32122 0.20412,0.38241 0,0.0366 0.0156,0.0667 0.0346,0.0667 0.019,0 0.0694,0.0782 0.11163,0.17364 0.0423,0.0954 0.1002,0.1977 0.12867,0.22737 0.0284,0.0297 0.0517,0.0721 0.0517,0.0941 0,0.0221 0.0735,0.18739 0.16329,0.36742 0.0898,0.18002 0.1633,0.35386 0.1633,0.38602 0,0.0322 0.0175,0.0584 0.0388,0.0584 0.0213,0 0.0715,0.10548 0.11162,0.23461 0.0401,0.12914 0.0864,0.24079 0.10284,0.24805 0.0165,0.007 0.0425,0.0803 0.0579,0.16226 0.0154,0.082 0.0523,0.17322 0.0816,0.20257 0.0294,0.0294 0.065,0.11694 0.0796,0.19482 0.0146,0.0779 0.0421,0.1416 0.061,0.1416 0.019,0 0.0468,0.0693 0.062,0.15348 0.0152,0.0842 0.0421,0.17167 0.0599,0.1943 0.0528,0.0673 0.16006,0.40065 0.16071,0.49971 3.2e-4,0.0506 0.0189,0.092 0.0413,0.092 0.0224,0 0.0408,0.0269 0.0408,0.06 0,0.033 0.0461,0.20059 0.10232,0.37259 0.0561,0.17199 0.1018,0.36543 0.1018,0.42994 0,0.0645 0.0172,0.11731 0.0377,0.11731 0.0423,0 0.12558,0.3517 0.12558,0.52968 0,0.0644 0.0164,0.12326 0.0362,0.13074 0.0503,0.019 0.29042,1.26214 0.29042,1.50327 0,0.10878 0.0163,0.20387 0.0362,0.21136 0.0389,0.0147 0.12712,0.82399 0.12712,1.16582 0,0.13075 0.0193,0.21517 0.0512,0.22582 0.0671,0.0224 0.0753,2.91669 0.008,2.9621 -0.0236,0.016 -0.0656,0.25877 -0.093,0.5395 -0.0274,0.28073 -0.0679,0.51651 -0.0899,0.524 -0.022,0.007 -0.0398,0.0897 -0.0398,0.18242 0,0.17403 -0.14395,0.82671 -0.28628,1.29759 -0.0446,0.14757 -0.0811,0.29773 -0.0811,0.33383 0,0.0361 -0.0247,0.0899 -0.0548,0.11989 -0.03,0.03 -0.0652,0.13525 -0.0786,0.23358 -0.0132,0.0983 -0.0405,0.19 -0.0605,0.2036 -0.0199,0.0136 -0.059,0.13028 -0.0873,0.25942 -0.0283,0.12913 -0.0685,0.23461 -0.0894,0.23461 -0.0209,0 -0.0382,0.0335 -0.0382,0.0744 0,0.114 -0.12515,0.45682 -0.16691,0.45682 -0.0203,0 -0.0372,0.0361 -0.0372,0.0806 0,0.10571 -0.2087,0.6134 -0.25218,0.6134 -0.0184,0 -0.0334,0.0414 -0.0336,0.092 -2e-4,0.0506 -0.0461,0.18382 -0.10129,0.29611 -0.0553,0.11229 -0.10058,0.2165 -0.10128,0.23202 -0.002,0.0475 -0.3369,0.74664 -0.36794,0.76843 -0.016,0.0112 -0.0415,0.0696 -0.0563,0.12971 -0.0147,0.0602 -0.0503,0.13366 -0.0791,0.1633 -0.0289,0.0296 -0.075,0.13138 -0.10284,0.22582 -0.0279,0.0944 -0.0753,0.19622 -0.10542,0.22635 -0.0301,0.0301 -0.068,0.0952 -0.0837,0.14469 -0.0157,0.0495 -0.0453,0.0899 -0.0661,0.0899 -0.0209,0 -0.0382,0.0353 -0.0382,0.0786 0,0.0433 -0.025,0.10354 -0.0553,0.13384 -0.0303,0.0303 -0.0774,0.12362 -0.10491,0.20722 -0.0276,0.0836 -0.0634,0.15193 -0.0796,0.15193 -0.0162,0 -0.0528,0.0642 -0.0811,0.14263 -0.0283,0.0784 -0.0736,0.16547 -0.10025,0.19378 -0.0267,0.0283 -0.10258,0.1666 -0.16847,0.30696 -0.0659,0.14036 -0.13463,0.25528 -0.15296,0.25528 -0.0183,0 -0.0336,0.0273 -0.0336,0.061 0,0.0337 -0.0348,0.0963 -0.0775,0.13901 -0.0427,0.0427 -0.0897,0.1153 -0.10439,0.16175 -0.0264,0.0832 -0.38361,0.70078 -0.4284,0.74052 -0.0126,0.0113 -0.0597,0.0905 -0.10438,0.17622 -0.0447,0.0857 -0.11367,0.19059 -0.15297,0.23306 -0.0393,0.0425 -0.0713,0.0931 -0.0713,0.11265 0,0.0456 -0.25344,0.43319 -0.29507,0.45114 -0.0173,0.007 -0.0315,0.031 -0.0315,0.0522 0,0.0448 -0.67303,1.08283 -0.75551,1.16531 -0.0306,0.0306 -0.0671,0.0906 -0.0806,0.13332 -0.0135,0.0427 -0.0514,0.0882 -0.0842,0.10077 -0.0328,0.0126 -0.0594,0.0509 -0.0594,0.0853 0,0.0344 -0.0137,0.0627 -0.0305,0.063 -0.0169,2.6e-4 -0.0651,0.0718 -0.10697,0.15916 -0.0418,0.0873 -0.12747,0.21554 -0.19068,0.28474 -0.0632,0.0692 -0.12632,0.16138 -0.14005,0.20464 -0.0137,0.0432 -0.0519,0.0887 -0.0848,0.10129 -0.0328,0.0126 -0.0599,0.043 -0.0599,0.0672 0,0.0522 -0.66281,0.98415 -0.75344,1.05936 -0.0345,0.0286 -0.0631,0.0742 -0.0631,0.10077 0,0.0266 -0.064,0.1183 -0.14263,0.20412 -0.0786,0.0858 -0.14314,0.1657 -0.14314,0.17725 0,0.0448 -0.66365,0.90744 -0.69815,0.90744 -0.0201,0 -0.0367,0.0193 -0.0367,0.0424 0,0.0583 -0.45079,0.65215 -0.49506,0.65215 -0.0197,0 -0.0362,0.0201 -0.0362,0.045 0,0.0428 -0.26831,0.39254 -0.77567,1.01079 -0.28465,0.34686 -0.33097,0.40214 -0.41857,0.49868 -0.0393,0.0433 -0.0713,0.0895 -0.0713,0.10232 0,0.0329 -0.69881,0.85157 -0.74104,0.86816 -0.019,0.007 -0.0351,0.0307 -0.0351,0.0522 0,0.0215 -0.14221,0.20734 -0.31626,0.41237 -0.54833,0.64589 -1.16271,1.35551 -1.2516,1.44591 -0.0471,0.0479 -0.14981,0.16613 -0.22841,0.26252 -0.21398,0.26241 -0.89251,1.02326 -1.0263,1.15083 -0.0644,0.0614 -0.1173,0.12402 -0.1173,0.13901 0,0.015 -0.0871,0.12102 -0.19379,0.23616 -0.10669,0.11514 -0.40526,0.43844 -0.66352,0.7183 -0.25827,0.27985 -0.5663,0.60817 -0.6842,0.72968 -0.11791,0.12151 -0.21394,0.23211 -0.21394,0.24546 0,0.0238 -0.12005,0.14993 -0.9927,1.04335 -0.24016,0.24586 -0.43667,0.45681 -0.43667,0.46922 6e-5,0.0782 -6.74184,6.77807 -6.95358,6.91017 -0.0243,0.0152 -0.20259,0.18048 -0.39636,0.36742 -0.19377,0.18695 -0.47992,0.45827 -0.63562,0.60255 -0.1557,0.14428 -0.42067,0.39219 -0.58911,0.55138 -0.43427,0.41045 -0.85893,0.80311 -1.32808,1.22784 -0.22326,0.20213 -0.50911,0.46397 -0.63511,0.58187 -0.126,0.1179 -0.23837,0.21446 -0.24959,0.21446 -0.0113,0 -0.12933,0.10548 -0.26304,0.23461 -0.34122,0.32956 -0.90603,0.84003 -0.96738,0.87437 -0.0283,0.0158 -0.1423,0.11706 -0.25373,0.22531 -0.21302,0.20695 -0.44643,0.41625 -0.87747,0.78858 -0.14299,0.12352 -0.42598,0.37584 -0.62942,0.56069 -0.20344,0.18484 -0.38228,0.3365 -0.39687,0.33693 -0.0146,4.4e-4 -0.0904,0.065 -0.16898,0.14366 -0.0786,0.0786 -0.17233,0.14314 -0.20826,0.14314 -0.0359,0 -0.0656,0.0263 -0.0656,0.0584 0,0.032 -0.0503,0.0979 -0.11214,0.14624 -0.0618,0.0483 -0.17667,0.14606 -0.25528,0.21756 -0.41055,0.37342 -1.54058,1.32209 -1.60248,1.34514 -0.0393,0.0147 -0.0718,0.043 -0.0718,0.0625 0,0.0336 -0.62894,0.5793 -0.66766,0.5793 -0.01,0 -0.0887,0.0659 -0.17519,0.14676 -0.0865,0.0808 -0.19459,0.1821 -0.24029,0.22479 -0.0457,0.0427 -0.10111,0.0775 -0.12299,0.0775 -0.0219,0 -0.0628,0.0367 -0.0909,0.0816 -0.0281,0.0449 -0.0696,0.0816 -0.0925,0.0816 -0.023,0 -0.0984,0.0645 -0.16743,0.14315 -0.069,0.0786 -0.14109,0.14262 -0.1602,0.14262 -0.0191,0 -0.079,0.0414 -0.13333,0.092 -0.17193,0.15971 -0.51436,0.44717 -0.99684,0.83716 -0.4069,0.3289 -0.4874,0.37775 -0.62321,0.37775 -0.13581,0 -0.21632,-0.0488 -0.62322,-0.37775 v -5.2e-4 c -0.48248,-0.38999 -0.82439,-0.67745 -0.99632,-0.83716 -0.0544,-0.0506 -0.11473,-0.0915 -0.13384,-0.0915 -0.0191,0 -0.0912,-0.0645 -0.1602,-0.14314 -0.069,-0.0786 -0.1401,-0.14314 -0.15813,-0.14314 -0.018,0 -0.12298,-0.0824 -0.23306,-0.18346 -0.11007,-0.10106 -0.21339,-0.18396 -0.22996,-0.18396 -0.0165,0 -0.0766,-0.0551 -0.13333,-0.12248 -0.0567,-0.0674 -0.11448,-0.12247 -0.12815,-0.12247 -0.0451,0 -0.66857,-0.53812 -0.69092,-0.59635 -0.012,-0.0314 -0.0422,-0.0568 -0.0672,-0.0568 -0.0543,0 -1.05936,-0.86042 -1.05936,-0.90692 0,-0.0177 -0.0232,-0.0329 -0.0512,-0.0336 -0.0281,-6.3e-4 -0.13562,-0.0788 -0.23875,-0.17363 -0.10314,-0.0948 -0.31386,-0.28228 -0.46819,-0.41703 -0.15434,-0.13475 -0.34255,-0.30477 -0.41858,-0.37776 -0.076,-0.073 -0.15042,-0.13281 -0.16536,-0.13281 -0.0149,0 -0.17415,-0.13852 -0.35347,-0.30799 -0.17932,-0.16947 -0.34689,-0.32112 -0.37259,-0.33693 -0.0608,-0.0374 -0.44554,-0.3729 -1.03352,-0.90175 -0.2593,-0.23322 -0.6169,-0.55489 -0.79479,-0.71469 -0.17787,-0.15979 -0.42541,-0.38276 -0.55035,-0.49506 -0.12494,-0.11228 -0.3288,-0.29778 -0.45269,-0.41237 -0.12388,-0.11459 -0.30349,-0.27721 -0.39894,-0.36174 -0.0954,-0.0845 -0.17312,-0.17924 -0.17312,-0.21032 0,-0.0311 -0.0341,-0.0563 -0.0754,-0.0563 -0.0413,0 -0.14886,-0.0782 -0.23926,-0.17363 -0.0904,-0.0954 -0.21071,-0.21037 -0.26769,-0.25528 -0.057,-0.0449 -0.34926,-0.31284 -0.64905,-0.59532 -0.29981,-0.28249 -0.64122,-0.60204 -0.75913,-0.71003 -0.1179,-0.10799 -0.21446,-0.22157 -0.21446,-0.25218 0,-0.0306 -0.0278,-0.0553 -0.0615,-0.0553 -0.0337,0 -0.061,-0.0184 -0.061,-0.0408 0,-0.0224 -0.0248,-0.0408 -0.0548,-0.0408 -0.03,0 -0.17887,-0.1295 -0.33124,-0.28733 -0.15237,-0.15784 -0.31524,-0.31366 -0.36174,-0.34623 -0.0881,-0.0617 -2.13296,-2.046 -2.39159,-2.32079 -0.0813,-0.0864 -0.19344,-0.19619 -0.24959,-0.24391 -0.13639,-0.11593 -3.0523,-3.04141 -3.75326,-3.76566 -0.30516,-0.3153 -0.75549,-0.7839 -1.00097,-1.04128 -0.24548,-0.25738 -0.57181,-0.59623 -0.72502,-0.75344 -0.15322,-0.1572 -0.2786,-0.29664 -0.27854,-0.30954 7e-5,-0.0129 -0.20146,-0.2333 -0.44803,-0.4899 -0.24659,-0.25658 -0.44862,-0.47877 -0.44907,-0.49402 -4.6e-4,-0.0152 -0.11123,-0.13296 -0.24598,-0.26149 -0.13474,-0.12853 -0.24495,-0.24753 -0.24495,-0.26406 0,-0.0165 -0.0966,-0.13099 -0.21446,-0.25425 -0.308,-0.32199 -1.06953,-1.17672 -1.0852,-1.21801 -0.007,-0.0192 -0.0718,-0.0979 -0.14315,-0.17519 -0.44216,-0.4792 -1.09443,-1.22402 -1.16478,-1.32963 -0.0367,-0.0551 -0.10385,-0.13914 -0.14883,-0.18707 -0.22081,-0.23529 -0.53273,-0.60329 -0.54725,-0.64544 -0.009,-0.0261 -0.0294,-0.0565 -0.0455,-0.0677 -0.0493,-0.0345 -0.7780698,-0.906 -0.8500798,-1.01647 -0.0373,-0.0572 -0.13672,-0.17818 -0.22065,-0.26872 -0.0839,-0.0905 -0.15269,-0.18053 -0.15297,-0.2005 -2.8e-4,-0.02 -0.0269,-0.0566 -0.0589,-0.0816 -0.032,-0.0249 -0.24293,-0.28424 -0.4692203,-0.57619 -0.2263,-0.29196 -0.43585,-0.55853 -0.46509,-0.59222 -0.15138,-0.17437 -0.31419,-0.40507 -0.31419,-0.44493 0,-0.0249 -0.0145,-0.045 -0.032,-0.045 -0.0519,0 -0.49868,-0.6009 -0.49868,-0.67076 0,-0.0353 -0.0232,-0.0653 -0.0512,-0.0661 -0.0447,-10e-4 -0.31626,-0.32969 -0.31626,-0.38241 0,-0.011 -0.0422,-0.065 -0.0935,-0.12041 -0.0513,-0.0554 -0.12006,-0.15126 -0.15296,-0.2129 -0.0329,-0.0616 -0.11033,-0.16635 -0.17209,-0.23255 -0.0618,-0.0662 -0.11213,-0.13761 -0.11213,-0.15864 0,-0.0211 -0.0186,-0.0601 -0.0413,-0.0873 -0.0227,-0.0271 -0.096,-0.11362 -0.16279,-0.19223 -0.0668,-0.0786 -0.14991,-0.20245 -0.185,-0.27544 -0.0351,-0.073 -0.0779,-0.13281 -0.0946,-0.13281 -0.0167,0 -0.0935,-0.10598 -0.17104,-0.23512 -0.14722,-0.24526 -0.1542,-0.25552 -0.28526,-0.41445 -0.0445,-0.054 -0.0811,-0.12176 -0.0811,-0.1509 0,-0.0291 -0.0241,-0.0679 -0.0537,-0.0858 -0.0557,-0.0337 -0.31368,-0.39546 -0.31368,-0.43976 0,-0.0137 -0.0184,-0.0473 -0.0413,-0.0744 -0.16901,-0.20042 -0.20852,-0.25926 -0.22944,-0.34261 -0.0131,-0.052 -0.0376,-0.0946 -0.0543,-0.0946 -0.0356,0 -0.28733,-0.39576 -0.28733,-0.45165 0,-0.021 -0.016,-0.0382 -0.0357,-0.0382 -0.0197,0 -0.0589,-0.0551 -0.0868,-0.12248 -0.0279,-0.0674 -0.0631,-0.12247 -0.078,-0.12247 -0.0149,0 -0.0812,-0.105 -0.14779,-0.23306 -0.0666,-0.12806 -0.1532,-0.26883 -0.19224,-0.31316 -0.039,-0.0444 -0.0827,-0.11829 -0.0971,-0.16381 -0.0145,-0.0455 -0.0515,-0.10778 -0.0822,-0.1385 -0.0308,-0.0308 -0.0558,-0.0821 -0.0558,-0.1142 0,-0.032 -0.0172,-0.0584 -0.0382,-0.0584 -0.021,0 -0.0614,-0.064 -0.0899,-0.14262 -0.0285,-0.0786 -0.0653,-0.14315 -0.0816,-0.14315 -0.0163,0 -0.0554,-0.0504 -0.0873,-0.11213 -0.12589,-0.24337 -0.2145,-0.39908 -0.23823,-0.41858 -0.0137,-0.0113 -0.0494,-0.0895 -0.0796,-0.17364 -0.0302,-0.0842 -0.0686,-0.15296 -0.0848,-0.15296 -0.0162,0 -0.0901,-0.12384 -0.16485,-0.27543 -0.0747,-0.15159 -0.14876,-0.28181 -0.16433,-0.28888 -0.0156,-0.007 -0.0504,-0.0802 -0.0775,-0.16226 -0.0271,-0.0822 -0.0741,-0.17382 -0.10439,-0.20412 -0.0303,-0.0303 -0.0553,-0.1003 -0.0553,-0.15555 0,-0.0553 -0.0273,-0.11111 -0.061,-0.12402 -0.064,-0.0245 -0.42891,-0.75087 -0.42891,-0.8537 0,-0.0326 -0.0178,-0.0594 -0.0393,-0.0594 -0.0216,0 -0.0622,-0.0782 -0.0904,-0.17364 -0.0282,-0.0954 -0.075,-0.19769 -0.10387,-0.22737 -0.0288,-0.0297 -0.0522,-0.0895 -0.0522,-0.13281 0,-0.0433 -0.0178,-0.0786 -0.0393,-0.0786 -0.0216,0 -0.062,-0.0782 -0.0899,-0.17363 -0.0279,-0.0954 -0.0632,-0.18309 -0.0785,-0.19431 -0.0535,-0.0395 -0.28267,-0.62217 -0.28267,-0.71881 0,-0.0538 -0.0173,-0.0977 -0.0388,-0.0977 -0.0215,0 -0.062,-0.0782 -0.0899,-0.17364 -0.0279,-0.0954 -0.066,-0.18383 -0.0848,-0.19688 -0.0187,-0.013 -0.0462,-0.0957 -0.0605,-0.18345 -0.0143,-0.0878 -0.0494,-0.18373 -0.0786,-0.21291 -0.0292,-0.0292 -0.0757,-0.16228 -0.10335004,-0.29611 -0.0277,-0.13384 -0.0641,-0.24339 -0.0811,-0.24339 -0.017,0 -0.0427,-0.0693 -0.0568,-0.15348 -0.0142,-0.0842 -0.0518,-0.21102 -0.0837,-0.28216 -0.0319,-0.0711 -0.0696,-0.21386 -0.0837,-0.31677 -0.0141,-0.10291 -0.039,-0.18707 -0.0553,-0.18707 -0.0395,0 -0.25558,-0.90823 -0.26097,-1.09657 -0.003,-0.0817 -0.0163,-0.15776 -0.0305,-0.16899 -0.0454,-0.0356 -0.15761,-0.78052 -0.15761,-1.04541 0,-0.16754 -0.0177,-0.26062 -0.0512,-0.27182 -0.0688,-0.023 -0.0745,-2.75376 -0.006,-2.79828 0.026,-0.0169 0.0553,-0.23532 0.0698,-0.51935 0.0341,-0.66595 0.10887,-1.16375 0.17467,-1.16375 0.0286,0 0.0601,0.0414 0.0698,0.092 0.0175,0.0911 0.0177,0.0912 0.0233,0.003 0.003,-0.0489 -0.0244,-0.11839 -0.0605,-0.15452 -0.0602,-0.0602 -0.0603,-0.0955 -0.001,-0.42168 0.13129,-0.72349 0.20184,-1.05033 0.22996,-1.07022 0.0159,-0.0113 0.0409,-0.11113 0.0558,-0.2222 0.0148,-0.11107 0.044,-0.21283 0.0651,-0.22583 0.0211,-0.013 0.0585,-0.15003 0.0832,-0.30489 0.0247,-0.15487 0.0528,-0.29491 0.0625,-0.31058 0.01,-0.0157 0.084,-0.24608 0.16485,-0.51263 0.0808,-0.26656 0.16216004,-0.49435 0.18086004,-0.50591 0.0187,-0.0116 0.0471,-0.091 0.0631,-0.17622 0.016,-0.0853 0.0543,-0.18037 0.0853,-0.21135 0.031,-0.031 0.0562,-0.0898 0.0563,-0.13074 2.1e-4,-0.0839 0.23887,-0.71628 0.28216,-0.74776 0.0154,-0.0112 0.0512,-0.0988 0.0791,-0.1943 0.0279,-0.0954 0.0683,-0.17312 0.0899,-0.17312 0.0215,0 0.0388,-0.0358 0.0388,-0.0791 0,-0.0433 0.0268,-0.10539 0.0594,-0.13797 0.0326,-0.0326 0.0725,-0.11175 0.0884,-0.17622 0.0411,-0.16694 0.25888,-0.58704 0.30437,-0.58704 0.021,0 0.0383,-0.0352 0.0383,-0.0785 0,-0.0433 0.0263,-0.1054 0.0589,-0.13798 0.0326,-0.0326 0.0721,-0.10883 0.0873,-0.1695 0.0152,-0.0606 0.0529,-0.11996 0.0837,-0.13177 0.0308,-0.0118 0.0558,-0.0551 0.0558,-0.0961 0,-0.0409 0.0273,-0.10171 0.061,-0.13539 0.0337,-0.0337 0.0615,-0.0772 0.0615,-0.0966 0,-0.0495 0.41552,-0.7229104 0.4563,-0.7394904 0.0184,-0.007 0.0336,-0.0318 0.0336,-0.0537 0,-0.0554 0.53535,-0.8516296 0.57258,-0.8516296 0.0166,0 0.0511,-0.0511 0.077,-0.11368 0.0259,-0.0626 0.12019,-0.19346 0.20929,-0.29094 0.0891,-0.0975 0.16175,-0.19329 0.16175,-0.21291 0,-0.0196 0.0184,-0.0357 0.0408,-0.0357 0.0224,0 0.0411,-0.0232 0.0413,-0.0512 2.8e-4,-0.0281 0.0601,-0.12331 0.1328,-0.21187 0.36788,-0.4481 0.60941,-0.71727 0.64441,-0.71727 0.0214,0 0.0393,-0.0257 0.0393,-0.0574 0,-0.0317 0.0551,-0.10401 0.12248,-0.16071 0.0674,-0.0567 0.12247,-0.11882 0.12247,-0.13798 0,-0.0352 1.22888,-1.25825 1.53117,-1.52394 0.0898,-0.0789 0.28242,-0.24039 0.4284,-0.35863 0.2561,-0.20745 0.32159,-0.25913 0.54725,-0.43563 0.0574,-0.0449 0.1736,-0.14148 0.25839,-0.21446 0.0848,-0.073 0.17533,-0.1328 0.20153,-0.13281 0.0262,-2e-5 0.0541,-0.017 0.0615,-0.0377 0.0205,-0.057 0.5761003,-0.45217 0.6356203,-0.45217 0.0286,0 0.0517,-0.015 0.0517,-0.0336 0,-0.036 0.34617,-0.27172 0.46767,-0.31833 0.0396,-0.0152 0.11816,-0.0706 0.17466,-0.12299 0.0565,-0.0524 0.16502,-0.11728 0.2408198,-0.14469 0.0758,-0.0274 0.13746,-0.0609 0.13746,-0.0744 0,-0.0135 0.12322,-0.0879 0.27388,-0.16536 0.15065,-0.0774 0.29912,-0.16369 0.3297,-0.19172 0.0306,-0.0281 0.10046,-0.0623 0.15503,-0.076 0.0546,-0.0137 0.0992,-0.0408 0.0992,-0.0599 0,-0.0191 0.0735,-0.0568 0.1633,-0.0837 0.0898,-0.0269 0.1633,-0.0614 0.1633,-0.077 0,-0.0332 0.53532,-0.28577 0.60565,-0.28577 0.0263,0 0.0475,-0.0179 0.0475,-0.0403 0,-0.0224 0.0232,-0.0417 0.0512,-0.0424 0.0281,-6.5e-4 0.14299,-0.0465 0.25528,-0.1018 0.11229,-0.0552 0.24383,-0.10056 0.29249,-0.10077 0.0487,-2e-4 0.095,-0.0207 0.10335,-0.0455 0.0182,-0.0547 0.4333,-0.2277 0.63821,-0.26614 0.0812,-0.0152 0.17167,-0.0517 0.20102,-0.0811 0.0294,-0.0294 0.12166,-0.0663 0.20515,-0.0817 0.0835,-0.0154 0.16137,-0.0393 0.1726,-0.0537 0.0389,-0.0499 0.68385,-0.24805 0.8077,-0.24805 0.0684,0 0.13071,-0.019 0.1385,-0.0424 0.0165,-0.0495 0.89599,-0.28422 1.06505,-0.28422 0.0632,0 0.15804,-0.0284 0.21084,-0.0631 0.0571,-0.0374 0.23824,-0.0726 0.44752,-0.0873 0.19344,-0.0137 0.35191,-0.0397 0.35191,-0.0579 0,-0.0356 0.0155,-0.039 0.77567,-0.15606 0.74272,-0.11437 1.06195,-0.14053 1.06195,-0.0879 0,0.0243 0.0349,0.0439 0.078,0.0439 0.043,0 0.0845,0.018 0.092,0.0403 0.009,0.0259 0.0798,0.0277 0.19741,0.005 0.16326,-0.032 0.16911,-0.0363 0.0512,-0.0403 -0.0926,-0.003 -0.13281,-0.0246 -0.13281,-0.0703 0,-0.0564 0.0389,-0.0615 0.28577,-0.0367 0.19826,0.0199 0.28577,0.0152 0.28577,-0.016 0,-0.0317 0.33258,-0.045 1.12293,-0.045 0.76412,0 1.12293,0.0135 1.12293,0.0429 0,0.029 0.0939,0.0345 0.28577,0.0155 0.24845,-0.0245 0.28577,-0.0196 0.28577,0.0382 0,0.0475 -0.0369,0.0661 -0.12919,0.0661 -0.0711,0 -0.1215,0.007 -0.11214,0.0155 0.0328,0.0293 0.42473,0.0738 0.39636,0.045 -0.0158,-0.016 -0.002,-0.056 0.0315,-0.0889 0.0513,-0.0513 0.12329,-0.0532 0.49816,-0.0129 0.24109,0.026 0.57623,0.072 0.74466,0.10232 0.16844,0.0303 0.39355,0.0666 0.50023,0.0811 0.10667,0.0144 0.19378,0.0412 0.19378,0.0589 0,0.0178 0.13968,0.0441 0.31006,0.0584 0.17038,0.0144 0.35876,0.0528 0.41858,0.0853 0.0598,0.0326 0.21398,0.0708 0.34313,0.0848 0.12915,0.0141 0.26145,0.0521 0.29352,0.0842 0.0321,0.0321 0.10975,0.0583 0.17312,0.0584 0.15128,3e-4 0.42168,0.0761 0.42168,0.11834 0,0.0182 0.0952,0.0446 0.21136,0.0584 0.11621,0.0137 0.22169,0.0412 0.23461,0.061 0.0129,0.0198 0.12032,0.0589 0.23823,0.0868 0.1179,0.0279 0.21394,0.0632 0.21394,0.078 0,0.0149 0.0966,0.05 0.21445,0.078 0.1179,0.028 0.22041,0.0687 0.2279,0.0909 0.007,0.0222 0.0409,0.0403 0.0739,0.0403 0.0947,0 0.709,0.25304 0.709,0.29197 0,0.0193 0.0292,0.0351 0.0651,0.0351 0.0879,0 0.54725,0.21248 0.54725,0.25322 0,0.0178 0.0301,0.0325 0.0667,0.0325 0.0819,0 0.58653,0.24499 0.58653,0.28474 0,0.0158 0.0735,0.0511 0.1633,0.078 0.0898,0.0269 0.16329,0.0663 0.16329,0.0878 0,0.0216 0.0263,0.0393 0.0584,0.0393 0.0321,0 0.0836,0.0231 0.1142,0.0512 0.0306,0.0281 0.19742,0.12431 0.37052,0.21395 0.17311,0.0896 0.31471,0.17674 0.31471,0.19378 0,0.017 0.019,0.031 0.0424,0.031 0.0616,0 0.93741,0.5784 0.93741,0.61908 0,0.0188 0.0268,0.0341 0.0594,0.0341 0.0326,0 0.074,0.0231 0.092,0.0512 0.0179,0.0281 0.0814,0.0762 0.14108,0.10697 0.0597,0.0307 0.16638,0.10895 0.23719,0.17363 0.0708,0.0647 0.14262,0.11731 0.15968,0.11731 0.0171,0 0.16887,0.11492 0.33693,0.25528 0.16805,0.14037 0.33186,0.2773 0.36432,0.30437 0.0324,0.0271 0.12204,0.10106 0.19896,0.16382 0.0769,0.0627 0.23105,0.20131 0.34261,0.30799 0.11157,0.10667 0.21448,0.19378 0.22841,0.19378 0.0479,0 1.18804,1.16487 1.18804,1.21388 0,0.027 0.0359,0.0684 0.0801,0.092 0.0442,0.0237 0.19194,0.17608 0.32815,0.33848 0.13619,0.1624 0.29024,0.34124 0.34209,0.39739 0.14625,0.15835 0.39274,0.47497 0.39274,0.50436 0,0.0145 0.0321,0.0611 0.0713,0.10335 0.0393,0.0423 0.12136,0.13728 0.18242,0.21136 l 0.1111,0.13436 0.10335,-0.1111 c 0.0568,-0.0614 0.10336,-0.12271 0.10336,-0.13591 0,-0.0249 0.38156,-0.50505 0.54156,-0.68162 0.0503,-0.0555 0.14658,-0.17017 0.21395,-0.25476 0.23609,-0.29645 0.43698,-0.50208 0.51418,-0.52658 0.0428,-0.0136 0.078,-0.0569 0.078,-0.0956 0,-0.0654 1.09386,-1.1896 1.15755,-1.1896 0.0158,0 0.0833,-0.0622 0.14986,-0.13797 0.0665,-0.0757 0.2245,-0.21733 0.3514,-0.31523 0.12688,-0.0979 0.28775,-0.23185 0.3576,-0.29714 0.0698,-0.0653 0.19169,-0.16663 0.27027,-0.22531 0.0786,-0.0587 0.17814,-0.13846 0.22169,-0.17776 0.0436,-0.0393 0.0986,-0.0723 0.12247,-0.0729 0.0238,-6.2e-4 0.0939,-0.0524 0.15555,-0.11524 0.0616,-0.0629 0.16164,-0.14067 0.22221,-0.1726 0.0606,-0.0319 0.16646,-0.1095 0.23513,-0.17208 0.0687,-0.0626 0.16599,-0.1241 0.21652,-0.13694 0.0505,-0.0128 0.092,-0.0389 0.092,-0.0584 0,-0.0194 0.0598,-0.0665 0.13281,-0.10387 0.073,-0.0374 0.14174,-0.0791 0.15297,-0.093 0.0381,-0.0472 0.36559,-0.24908 0.40411,-0.24908 0.0211,0 0.0447,-0.0149 0.0522,-0.0331 0.0148,-0.0358 0.73959,-0.45681 0.78651,-0.45681 0.0158,0 0.0573,-0.0288 0.092,-0.0636 0.0348,-0.0348 0.11621,-0.0738 0.18087,-0.0868 0.0647,-0.013 0.11782,-0.0373 0.11782,-0.0537 0,-0.0398 0.5024,-0.28628 0.58342,-0.28628 0.0347,0 0.069,-0.0142 0.0765,-0.032 0.0226,-0.0538 0.43521,-0.25373 0.52348,-0.25373 0.0453,0 0.0822,-0.0158 0.0822,-0.0351 0,-0.0389 0.61485,-0.29146 0.70952,-0.29146 0.033,0 0.0659,-0.017 0.0734,-0.0382 0.007,-0.0212 0.10527,-0.0625 0.21756,-0.0915 0.11229,-0.029 0.21357,-0.0641 0.22479,-0.078 0.0376,-0.0464 0.67244,-0.24133 0.786,-0.24133 0.0617,0 0.11214,-0.0174 0.11214,-0.0388 0,-0.0469 0.26143,-0.12423 0.42168,-0.12454 0.0634,-1.3e-4 0.14104,-0.0264 0.17311,-0.0584 0.032,-0.032 0.16438,-0.0696 0.29353,-0.0837 0.12915,-0.0141 0.28383,-0.0523 0.34364,-0.0848 0.0598,-0.0326 0.24769,-0.0714 0.41807,-0.0858 0.17038,-0.0144 0.31005,-0.0402 0.31005,-0.0574 0,-0.0172 0.0687,-0.0417 0.15297,-0.0543 0.0842,-0.0126 0.3828,-0.0587 0.66352,-0.10284 0.7283,-0.11421 1.06195,-0.14223 1.06195,-0.0889 0,0.0243 0.0286,0.0444 0.0636,0.0444 0.0351,0 0.0512,0.0197 0.0362,0.0439 -0.0189,0.0306 0.0338,0.035 0.17156,0.015 0.23748,-0.0345 0.28026,-0.0589 0.10284,-0.0589 -0.0923,0 -0.12919,-0.0192 -0.12919,-0.0667 0,-0.0578 0.0372,-0.0628 0.28577,-0.0382 0.19191,0.0189 0.28577,0.014 0.28577,-0.015 0,-0.0294 0.35881,-0.0434 1.12293,-0.0434 z"
   style="fill:currentColor"
   id="path2" />
       </svg>
